<svg id="Capa_1" enable-background="new 0 0 512 512" height="512" viewBox="0 0 512 512" width="512" xmlns="http://www.w3.org/2000/svg"><circle cx="256" cy="256" fill="#fea95c" r="248.514"/><path d="m504.508 255.997c0 137.254-111.26 248.514-248.514 248.514-61.429 0-117.656-22.296-161.027-59.22 36.693 21.371 79.358 33.611 124.886 33.611 137.255 0 248.514-111.26 248.514-248.514 0-75.8-33.931-143.663-87.423-189.256 73.9 43.063 123.564 123.165 123.564 214.865z" fill="#fe9738"/><path d="m480.523 150.017c-3.007-6.372-6.242-12.547-9.709-18.536l-82.719 39.037c-5.375 2.537-11.757-.154-13.717-5.765-15.453-44.246-20.053-90.145-14.942-134.47-11.782-5.391-23.966-9.852-36.435-13.349-8.104 54.532-2.991 111.54 17.081 166.119 1.793 4.875-.396 10.311-5.093 12.528l-59.927 28.281c-4.991 2.356-10.947.219-13.303-4.773l-92.379-195.752c-6.483 2.419-12.906 5.13-19.278 8.137s-12.547 6.242-18.536 9.709l92.38 195.751c2.356 4.991.219 10.947-4.773 13.303l-59.927 28.281c-4.697 2.217-10.285.45-12.908-4.033-29.372-50.19-70.128-90.377-117.374-118.787-5.227 11.849-9.528 24.09-12.857 36.612 37.466 24.232 69.972 56.96 94.303 97.017 3.086 5.08 1.106 11.717-4.269 14.254l-82.719 39.037c2.419 6.484 5.13 12.907 8.137 19.278s6.246 12.556 9.709 18.536l82.768-39.06c5.369-2.534 11.743.148 13.711 5.749 15.558 44.283 20.239 90.24 15.178 134.632 11.801 5.382 24.002 9.835 36.485 13.315 8.033-54.568 2.833-111.606-17.348-166.199-1.805-4.884.374-10.338 5.083-12.56l59.875-28.257c4.991-2.356 10.947-.219 13.303 4.773l92.38 195.751c6.483-2.419 12.915-5.134 19.278-8.137 6.372-3.007 12.547-6.242 18.536-9.709l-92.38-195.751c-2.356-4.991-.219-10.947 4.773-13.303l59.875-28.257c4.709-2.222 10.304-.437 12.927 4.061 29.313 50.283 70.037 90.556 117.267 119.044 5.258-11.853 9.578-24.102 12.916-36.628-37.486-24.313-69.985-57.141-94.278-97.302-3.073-5.08-1.091-11.705 4.278-14.239l82.768-39.06c-2.422-6.484-5.133-12.907-8.14-19.278z" fill="#685e68"/><g fill="#554e56"><path d="m154.02 470.091c12.157 3.334 24.684 5.759 37.52 7.207-.549 5.949-1.258 11.868-2.126 17.767-12.487-3.474-24.694-7.935-36.492-13.315.439-3.873.808-7.756 1.098-11.659z"/><path d="m362.981 433.579 17.537 37.151c-5.989 3.464-12.167 6.698-18.536 9.712-6.368 2.994-12.796 5.709-19.284 8.135l-15.94-33.777c12.707-6.069 24.824-13.176 36.223-21.221z"/><path d="m463.484 181.169c-2.805-14.004-6.797-27.589-11.858-40.634l19.184-9.053c3.474 5.989 6.707 12.167 9.712 18.536 3.004 6.368 5.719 12.796 8.135 19.274z"/><path d="m495.893 319.891c-3.334 12.527-7.656 24.784-12.916 36.632-12.497-7.536-24.534-15.89-36.023-25.063 5.5-12.327 10.011-25.183 13.455-38.478 11.2 9.881 23.068 18.864 35.484 26.909z"/></g><path d="m437.02 74.98c-48.353-48.351-112.64-74.98-181.02-74.98-29.58 0-58.574 5.002-86.178 14.87-26.678 9.535-51.469 23.386-73.681 41.167-3.228 2.584-3.75 7.295-1.167 10.522 2.583 3.228 7.294 3.748 10.522 1.167 7.317-5.857 14.896-11.233 22.7-16.143l88.98 188.546c.591 1.251.053 2.749-1.198 3.339l-59.927 28.28c-1.176.554-2.576.109-3.252-1.044-28.034-47.904-67.553-88.611-114.541-118.077 9.266-19.523 21.176-37.849 35.535-54.414l4.521-5.069 2.745-2.946c2.819-3.025 2.652-7.762-.372-10.58-3.025-2.82-7.762-2.651-10.58.372l-2.803 3.008c-.038.04-.074.08-.111.121l-4.608 5.166c-.022.026-.046.052-.068.079-40.315 46.49-62.517 106.024-62.517 167.636 0 68.38 26.629 132.667 74.98 181.02 48.353 48.351 112.64 74.98 181.02 74.98s132.667-26.629 181.02-74.98c48.351-48.353 74.98-112.64 74.98-181.02 0-68.381-26.629-132.667-74.98-181.02zm-71.142-33.624c22.079 11.333 42.5 26.156 60.555 44.211 13.039 13.039 24.391 27.313 33.965 42.552l-75.497 35.629c-.877.413-1.653.206-2.038.044-.389-.163-1.092-.576-1.416-1.508-13.682-39.173-18.903-79.805-15.569-120.928zm-109.878-26.384c20.062 0 39.75 2.436 58.726 7.166-7.129 55.008-.829 111.398 18.33 163.498.46 1.253-.082 2.617-1.262 3.175l-59.927 28.28c-.816.385-1.552.223-1.915.093-.365-.131-1.035-.473-1.421-1.291l-89.017-188.621c24.332-8.121 50.03-12.3 76.486-12.3zm-241.028 241.028c0-17.49 1.913-34.798 5.608-51.649 33.85 23.565 61.896 53.407 83.432 88.863.513.842.385 1.646.264 2.051-.121.399-.452 1.131-1.331 1.545l-75.632 35.693c-8.116-24.341-12.341-50.096-12.341-76.503zm241.028 241.028c-19.925 0-39.479-2.407-58.335-7.073 7.081-55.087.693-111.542-18.581-163.681-.467-1.263.073-2.638 1.256-3.196l59.874-28.256c1.252-.593 2.748-.053 3.339 1.198l89.025 188.641c-24.363 8.132-50.144 12.367-76.578 12.367zm223.488-151.485c-12.534-8.017-24.57-16.907-35.866-26.499-3.154-2.677-7.877-2.29-10.553.862s-2.29 7.876.862 10.552c12.505 10.616 25.877 20.405 39.816 29.165-11.674 24.485-27.566 47.06-47.314 66.808-13.031 13.03-27.295 24.376-42.522 33.947l-89.005-188.597c-.59-1.251-.052-2.748 1.198-3.339l59.875-28.256c1.183-.557 2.587-.101 3.264 1.062 13.717 23.529 30.182 45.385 48.94 64.962 2.859 2.987 7.599 3.087 10.584.226 2.986-2.86 3.087-7.599.226-10.584-17.941-18.726-33.693-39.634-46.816-62.146-4.617-7.921-14.327-10.956-22.589-7.059l-59.875 28.256c-8.716 4.114-12.461 14.552-8.347 23.268l89.4 189.434c-3.918 2.119-7.928 4.148-11.981 6.06-4.052 1.913-8.166 3.718-12.294 5.395l-89.4-189.434c-1.992-4.223-5.51-7.416-9.906-8.993-4.394-1.575-9.14-1.349-13.363.646l-59.874 28.256c-8.259 3.897-12.089 13.324-8.91 21.926 18.129 49.041 24.346 102.072 18.112 153.925-7.527-2.393-14.958-5.161-22.212-8.276 4.35-45.066-1.069-89.607-16.13-132.475-1.642-4.672-5.202-8.446-9.769-10.356-4.555-1.904-9.732-1.79-14.2.318l-18.58 8.769c-3.738 1.764-5.34 6.226-3.574 9.965 1.763 3.739 6.225 5.339 9.965 3.574l18.579-8.767c.874-.413 1.651-.207 2.035-.045.39.163 1.092.574 1.418 1.505 13.793 39.257 19.083 79.986 15.775 121.216-22.208-11.354-42.745-26.239-60.891-44.385-13.049-13.05-24.409-27.337-33.989-42.589l25.665-12.111c3.738-1.764 5.34-6.226 3.575-9.965s-6.228-5.342-9.966-3.574l-26.464 12.488c-2.116-3.914-4.145-7.923-6.06-11.981-1.913-4.054-3.719-8.168-5.395-12.295l76.402-36.056c4.473-2.11 7.855-6.038 9.279-10.776 1.427-4.745.769-9.898-1.805-14.134-23.551-38.771-54.496-71.173-92.029-96.38 2.193-7.563 4.768-15.052 7.693-22.384 43.999 28.073 81.018 66.501 107.405 111.59 4.619 7.895 14.317 10.912 22.564 7.021l59.927-28.28c8.715-4.113 12.46-14.551 8.348-23.268l-89.4-189.435c3.917-2.119 7.928-4.147 11.981-6.061 4.053-1.912 8.167-3.718 12.293-5.395l89.4 189.434c1.992 4.223 5.51 7.417 9.905 8.994 4.397 1.575 9.14 1.348 13.363-.646l59.927-28.28c8.243-3.891 12.079-13.298 8.923-21.882-18.03-49.028-24.161-102.034-17.861-153.844 7.517 2.402 14.934 5.175 22.169 8.291-4.402 44.998.939 89.485 15.895 132.309 1.635 4.681 5.194 8.464 9.764 10.379 4.562 1.912 9.744 1.797 14.216-.313l76.403-36.056c2.116 3.913 4.145 7.923 6.06 11.981 1.913 4.055 3.719 8.169 5.395 12.293l-76.45 36.079c-4.467 2.108-7.848 6.03-9.274 10.76-1.429 4.739-.779 9.887 1.785 14.123 23.519 38.88 54.454 71.377 92.009 96.668-2.203 7.581-4.79 15.078-7.731 22.409zm-71.468-126.825c-.511-.843-.382-1.646-.26-2.05.12-.399.452-1.129 1.329-1.543l75.583-35.67c8.126 24.353 12.357 50.123 12.357 76.545 0 17.655-1.898 35.017-5.573 51.863-33.878-23.645-61.924-53.583-83.436-89.145z"/></svg>