<svg enable-background="new 0 0 100 100" height="100" viewBox="0 0 100 100" width="100" xmlns="http://www.w3.org/2000/svg"><g id="flat"><circle cx="50" cy="50" fill="#e6c522" r="40"/><ellipse cx="50" cy="44.383" fill="#ffdf40" rx="33.625" ry="34.383"/><g><path d="m69.064 78.098c-15.064 8.703-33.258 8.259-47.316.152l-.029.036c7.237 7.237 17.236 11.714 28.281 11.714 7.095 0 13.758-1.847 19.535-5.086-.002-2.227-.102-4.633-.471-6.816z" fill="#3a72e6"/></g><g fill="#407fff"><path d="m86.526 65.875c-.015-17.455-9.041-34.42-25.173-43.851 2.57-2.573 5.474-4.82 8.646-6.655 0 0-2.262-1.556-6.359-2.983s-6.058-1.663-6.058-1.663c-15.289 8.839-25.561 25.367-25.561 44.298 0 0-.037.046-.085.11-4.867.297-9.718-.309-14.323-1.782l-.02-.164-.005.008c0-18.145 9.865-33.924 24.519-42.398-18.307 3.664-32.099 19.823-32.107 39.205v.008s0 .005 0 .008c.002 4.942.9 9.676 2.541 14.046 15.257 8.792 34.857 9.354 51.204-.082l.059-.036c-3.374-5.562-8.022-10.744-14.054-14.226 0-5.847 1.31-11.344 3.61-16.293l.14.117c16.303 9.413 25.438 26.468 25.496 44.027 3.199-3.366 5.82-7.288 7.699-11.608z"/><path d="m78.934 77.637.066.058c0-.042-.004-.084-.004-.127-.021.023-.041.046-.062.069z"/></g><g fill="#3a72e6"><path d="m86.526 65.875c-.005-5.922-1.07-11.78-3.074-17.315-.606 6-2.796 11.528-6.136 16.176 1.098 4.174 1.665 8.488 1.68 12.832 3.199-3.367 5.82-7.288 7.699-11.608z"/><path d="m48.934 77.637.066.058c0-.043-.004-.084-.004-.127-.021.023-.041.046-.062.069z"/><path d="m37.195 14.047c1.568-1.176 3.206-2.266 4.911-3.252-18.306 3.664-32.098 19.823-32.106 39.205.084.048.001.017 0 .017.003 4.942.9 9.676 2.541 14.046 4.501 2.594 9.381 4.465 14.442 5.58-4.631-4.352-8.029-9.998-9.611-16.365-.619-2.552-.997-5.394-.997-8.136 0-14.036 8.603-26.058 20.82-31.095z"/></g><path d="m61.421 22.03c-3.261 3.328-5.943 7.224-7.888 11.524l-.033-.013c16.342 9.436 25.485 26.55 25.5 44.154l-.066-.059c3.229-3.382 5.87-7.328 7.762-11.677l-.169-.085c-.015-17.543-9.126-34.598-25.411-44" fill="none"/><g><path d="m49.75 49.718c6.032 3.482 10.68 8.664 14.054 14.227l-.059.036c-16.347 9.437-35.947 8.874-51.204.082-1.643-4.375-2.541-9.115-2.541-14.063 11.968 6.896 26.928 7.12 39.75-.282z" fill="none"/></g><g><path d="m68.98 16.004c.341-.21.672-.435 1.019-.635 0 0-2.262-1.556-6.359-2.983s-6.058-1.663-6.058-1.663c-.066.039-.132.08-.198.119 4.22.968 8.141 2.741 11.596 5.162z" fill="#3a72e6"/></g></g></svg>