<svg height="512pt" viewBox="0 -43 512 512" width="512pt" xmlns="http://www.w3.org/2000/svg"><path d="m278.035156 260.550781c65.34375-43.585937 82.980469-131.894531 39.390625-197.234375-43.585937-65.34375-131.894531-82.980468-197.238281-39.394531-65.339844 43.589844-82.980469 131.894531-39.390625 197.238281 10.40625 15.597656 23.792969 28.984375 39.390625 39.390625-70.375 16.828125-120.058594 79.675781-120.1875 152.035157 0 7.855468 6.367188 14.222656 14.222656 14.222656h369.777344c7.855469 0 14.222656-6.367188 14.222656-14.222656-.128906-72.359376-49.816406-135.207032-120.1875-152.035157zm-192.703125-118.1875c0-62.835937 50.941407-113.777343 113.777344-113.777343 62.839844 0 113.78125 50.941406 113.78125 113.777343 0 62.839844-50.941406 113.777344-113.777344 113.777344-62.8125-.066406-113.710937-50.964844-113.78125-113.777344zm-56.109375 256.003907c7.328125-64.75 62.0625-113.699219 127.222656-113.78125h85.332032c65.160156.082031 119.894531 49.03125 127.222656 113.78125zm0 0"/><path d="m497.777344 270.363281h-14.222656v-71.109375c0-7.855468-6.367188-14.222656-14.222657-14.222656h-28.445312c-7.851563 0-14.222657 6.367188-14.222657 14.222656 0 7.855469 6.367188 14.222656 14.222657 14.222656h14.222656v56.886719h-14.222656c-7.851563 0-14.222657 6.367188-14.222657 14.222657 0 7.859374 6.367188 14.226562 14.222657 14.226562h56.890625c7.855468 0 14.222656-6.367188 14.222656-14.226562 0-7.855469-6.367188-14.222657-14.222656-14.222657zm0 0"/><path d="m490.667969 135.253906c0 11.78125-9.550781 21.332032-21.335938 21.332032-11.78125 0-21.332031-9.550782-21.332031-21.332032s9.550781-21.332031 21.332031-21.332031c11.785157 0 21.335938 9.550781 21.335938 21.332031zm0 0"/></svg>