<svg enable-background="new 0 0 64 64" height="64" viewBox="0 0 64 64" width="64" xmlns="http://www.w3.org/2000/svg"><g id="_x31_00_Reload"/><g id="_x39_9_Sync"/><g id="_x39_8_Search"/><g id="_x39_7_Music"/><g id="_x39_6_Music"/><g id="_x39_5_Virus"/><g id="_x39_4_Diagram"/><g id="_x39_3_Charge"/><g id="_x39_2_Battery"/><g id="_x39_1_Weather"/><g id="_x39_0_Computer"/><g id="_x38_9_Phone"/><g id="_x38_8_Tv"/><g id="_x38_7_Radio"/><g id="_x38_6_Flag"/><g id="_x38_5_Storage"/><g id="_x38_4_Bookmark"/><g id="_x38_3_Web"/><g id="_x38_2_Setting"/><g id="_x38_1_Film"/><g id="_x38_0_Pin"/><g id="_x37_9_People"/><g id="_x37_8_User"/><g id="_x37_7_User"/><g id="_x37_6_Chat"/><g id="_x37_5_Chat"/><g id="_x37_4_Android"/><g id="_x37_3_Power"/><g id="_x37_2_Filter"/><g id="_x37_1_Video"/><g id="_x37_0_Night_Mode"/><g id="_x36_9_Link"/><g id="_x36_8_Game"/><g id="_x36_7_Alarm"/><g id="_x36_6_Screen_Capture"/><g id="_x36_5_Connection"/><g id="_x36_4_Wifi"/><g id="_x36_3_Call"/><g id="_x36_2_File"/><g id="_x36_1_Sim_Card"/><g id="_x36_0_Log_In"/><g id="_x35_9_Log_Out"/><g id="_x35_8_Silent"/><g id="_x35_7_Sound"/><g id="_x35_6_Vibrate"/><g id="_x35_5_Security"/><g id="_x35_4_Security"/><g id="_x35_3_Contact"/><g id="_x35_2_Note"/><g id="_x35_1_Picture"/><g id="_x35_0_Bluetooth"/><g id="_x34_9_Headphone"/><g id="_x34_8_Switch"/><g id="_x34_7_Switch_1_"/><g id="_x34_6_Switch_1_"/><g id="_x34_5_Message"/><g id="_x34_4_Mic"/><g id="_x34_3_Airplane"/><g id="_x34_2_Home"/><g id="_x34_1_Setting"/><g id="_x34_0_Key"/><g id="_x33_9_Calendar"/><g id="_x33_8_Forward"/><g id="_x33_7_Back"/><g id="_x33_6_Location"/><g id="_x33_5_Folder"/><g id="_x33_4_Silent"/><g id="_x33_3_Notification"/><g id="_x33_2_Menu"/><g id="_x33_1_Menu"/><g id="_x33_0_Clock"/><g id="_x32_9_Down"/><g id="_x32_8_Up"/><g id="_x32_7_Left"/><g id="_x32_6_Right"/><g id="_x32_5_Add"/><g id="_x32_4_Question"/><g id="_x32_3_Warn"/><g id="_x32_2_Accept"/><g id="_x32_1_Close"/><g id="_x32_0_Scan"/><g id="_x31_9_Hide"/><g id="_x31_8_View"/><g id="_x31_7_Brightness"><g><path d="m32 8c1.104 0 2-.896 2-2v-4c0-1.104-.896-2-2-2s-2 .896-2 2v4c0 1.104.896 2 2 2z"/><path d="m32 56c-1.104 0-2 .896-2 2v4c0 1.104.896 2 2 2s2-.896 2-2v-4c0-1.104-.896-2-2-2z"/><path d="m12.201 15.029c.391.391.902.586 1.414.586s1.023-.195 1.414-.585c.781-.781.781-2.047 0-2.829l-2.828-2.829c-.781-.781-2.047-.781-2.828 0s-.781 2.047 0 2.829z"/><path d="m51.799 48.971c-.781-.781-2.047-.781-2.828 0s-.781 2.047 0 2.829l2.828 2.829c.391.391.902.586 1.414.586s1.023-.195 1.414-.585c.781-.781.781-2.047 0-2.829z"/><path d="m6 30h-4c-1.104 0-2 .896-2 2s.896 2 2 2h4c1.104 0 2-.896 2-2s-.896-2-2-2z"/><path d="m62 30h-4c-1.104 0-2 .896-2 2s.896 2 2 2h4c1.104 0 2-.896 2-2s-.896-2-2-2z"/><path d="m12.201 48.971-2.828 2.829c-.781.781-.781 2.047 0 2.829.391.39.902.585 1.414.585s1.023-.195 1.414-.586l2.828-2.829c.781-.781.781-2.047 0-2.829-.781-.78-2.047-.781-2.828.001z"/><path d="m51.799 9.373-2.828 2.829c-.781.781-.781 2.047 0 2.829.391.39.902.585 1.414.585s1.023-.195 1.414-.586l2.828-2.829c.781-.781.781-2.047 0-2.829-.781-.78-2.047-.781-2.828.001z"/><path d="m32 12c-11.028 0-20 8.972-20 20s8.972 20 20 20 20-8.972 20-20-8.972-20-20-20zm0 36c-8.822 0-16-7.178-16-16s7.178-16 16-16 16 7.178 16 16-7.178 16-16 16z"/></g></g><g id="_x31_6_Camera"/><g id="_x31_5_Delete"/><g id="_x31_4_Lock"/><g id="_x31_3_Unlocked"/><g id="_x31_2_Create"/><g id="_x31_1_Waiting"/><g id="_x31_0_History"/><g id="_x30_9_Browser"/><g id="_x30_8_Share"/><g id="_x30_7_Clean"/><g id="_x30_6_Theme"/><g id="_x30_5_Back_Up"/><g id="_x30_4_Cloud"/><g id="_x30_3_Storage"/><g id="_x30_2_Download"/><g id="_x30_1_Upload"/></svg>