<svg width="750" height="427" viewBox="0 0 750 427" fill="none" xmlns="http://www.w3.org/2000/svg">
<path fill-rule="evenodd" clip-rule="evenodd" d="M296.198 52.479C295.601 53.3892 295.386 55.09 295.255 59.9321C294.943 71.3935 296.955 93.2857 299.465 105.748C302.139 119.025 308.488 133.606 322.356 158.316C327.082 166.737 327.68 167.866 329.504 171.805C331.634 176.405 331.574 176.1 330.409 176.397C324.001 178.037 320.032 179.458 315.064 181.892C309.334 184.7 304.335 188.052 299.512 192.324L297.439 194.158L295.734 192.803C290.096 188.324 282.59 185.619 272.938 184.589C270.496 184.328 265.262 184.264 246.059 184.263L222.212 184.26L222.089 184.765C222.021 185.043 221.4 188.152 220.707 191.673C220.015 195.194 215.51 217.947 210.696 242.236C205.881 266.524 201.943 286.513 201.943 286.654C201.943 286.846 205.655 286.912 216.306 286.912H230.669L230.91 285.733C231.452 283.088 235.868 260.509 235.868 260.381C235.868 260.305 241.909 260.188 249.292 260.12C263.633 259.989 265.389 259.875 271.029 258.713C272.512 258.407 274.886 257.811 276.305 257.388C277.724 256.965 278.9 256.637 278.917 256.66C278.935 256.682 279.223 257.661 279.558 258.834C281.607 266.027 284.893 272.135 289.619 277.534L290.946 279.05H289.039C287.208 279.05 287.111 279.076 286.581 279.706C285.919 280.493 285.423 281.859 279.567 299.042C273.564 316.656 272.183 320.474 271.276 321.953C270.175 323.75 268.64 326.881 267.127 330.42C264.262 337.119 263.888 338.896 264.96 340.725C267.686 345.376 285.132 355.761 299.533 361.306C304.526 363.229 320.715 368.662 326.512 370.361C333.112 372.295 342.884 374.161 351.333 375.1C355.635 375.578 364.87 375.767 367.412 375.428C370.977 374.954 376.041 372.928 376.996 371.594C377.217 371.285 377.547 370.448 377.73 369.734C378.245 367.725 378.986 361.434 379.197 357.272C379.422 352.852 379.263 353.426 384.607 337.677C388.78 325.376 390.973 318.51 391.691 315.497C391.992 314.232 392.238 313.153 392.238 313.1C392.238 312.899 388.448 310.971 386.684 310.275C385.667 309.874 384.724 309.412 384.587 309.247C384.294 308.894 384.481 307.841 385.643 303.309C386.636 299.439 386.678 298.223 385.88 296.487C385.546 295.762 385.274 295.131 385.274 295.086C385.274 295.04 390.897 294.976 397.771 294.944L410.268 294.886L415.909 285.396L421.551 275.906L435.821 275.906L450.091 275.906L451.289 281.674C451.947 284.846 452.679 287.955 452.915 288.581C453.869 291.119 456.351 293.415 459.19 294.386L460.65 294.886L493.604 294.947C524.962 295.004 526.564 294.988 526.674 294.61C526.738 294.391 528.024 288.02 529.533 280.451C531.042 272.882 532.317 266.731 532.368 266.781C532.419 266.832 534.21 271.003 536.349 276.05L540.238 285.227L552.093 285.286C560.698 285.328 564.032 285.274 564.256 285.088C564.425 284.948 566.757 282.019 569.439 278.581C572.12 275.142 574.335 272.35 574.361 272.377C574.387 272.403 573.911 274.995 573.303 278.137C572.126 284.231 572.022 285.442 572.521 287.314C573.428 290.72 575.762 293.205 579.159 294.38L580.624 294.886H641.847H703.069L704.645 294.39C707.404 293.522 709.746 291.533 710.913 289.068C711.292 288.267 712.209 284.39 713.728 277.172C714.967 271.283 716.082 265.832 716.205 265.06C716.682 262.076 715.589 258.885 713.311 256.607C712.61 255.906 711.713 255.199 711.316 255.035C710.896 254.861 710.596 254.574 710.596 254.346C710.596 254.131 710.852 252.702 711.164 251.172C713.302 240.705 716.213 225.422 716.213 224.661C716.213 223.574 715.067 220.029 714.28 218.683L713.722 217.729L714.799 217.725C716.381 217.719 718.688 217.174 720.049 216.484C721.658 215.67 723.626 213.652 724.388 212.037C725.051 210.632 725.52 208.512 729.659 188.191C730.993 181.643 732.046 176.21 731.998 176.118C731.952 176.025 709.891 175.949 682.975 175.949H634.037L633.782 176.96C633.642 177.516 633.491 177.971 633.447 177.971C633.402 177.971 632.924 177.726 632.383 177.427C630.084 176.156 630.232 176.165 613.777 176.228L598.64 176.286L580.356 199.534C570.3 212.321 561.896 222.959 561.682 223.175C561.311 223.547 560.871 222.529 552.901 202.847C543.971 180.793 543.594 179.986 541.482 178.377C538.881 176.395 537.732 176.198 527.862 176.039C518.623 175.89 511.141 176.164 509.37 176.716C506.741 177.535 504.163 179.942 503.198 182.481C502.954 183.124 500.028 197.199 496.696 213.757C493.365 230.316 490.602 243.901 490.558 243.946C490.513 243.991 490.006 242.078 489.431 239.695C488.856 237.311 485.167 222.069 481.232 205.824L474.078 176.286L470.559 176.174L467.041 176.061L471.485 173.101C473.928 171.473 477.04 169.272 478.399 168.21C488.166 160.577 498.273 149.742 509.347 135.034C512.631 130.673 516.494 125.063 516.772 124.253C516.941 123.759 515.495 123.134 510.19 121.405C501.761 118.657 490.399 115.469 484.057 114.071C482.102 113.64 480.409 113.229 480.294 113.158C479.938 112.938 480.06 111.923 480.761 109.257C481.132 107.847 481.409 106.671 481.378 106.644C481.346 106.616 480.511 106.188 479.523 105.694C478.534 105.199 474.136 102.625 469.75 99.9738C443.545 84.1371 443.041 83.8435 435.824 80.2377C428.584 76.6202 423.684 74.6361 414.818 71.7326C402.468 67.6886 396.672 66.3725 384.15 64.7703C369.402 62.8828 339.922 60.6633 335.316 61.0932L333.84 61.2309L333.214 63.0879L332.588 64.9448L322.815 61.5189C311.327 57.4919 304.213 54.8386 300.417 53.1657C297.357 51.8168 296.702 51.7101 296.198 52.479ZM309.606 67.3336C313.765 68.5437 321.786 71.2403 326.048 72.8614L329.168 74.0483L329.025 76.2417C328.789 79.8307 328.496 80.1863 326.177 79.6905C325.378 79.5198 322.112 78.6202 318.917 77.6912C315.723 76.7621 312.635 75.9391 312.055 75.8623C311.058 75.73 310.984 75.7569 310.701 76.363C310.243 77.3414 310.062 83.6829 310.257 91.9407C310.446 99.9509 310.558 100.983 311.704 105.37C313.923 113.862 318.457 125.638 323.293 135.473C326.475 141.944 327.965 146.299 326.998 146.299C325.347 146.299 313.603 122.251 310.708 112.943C309.491 109.028 307.029 94.1761 306.426 87.1113C305.718 78.8219 305.517 66.3339 306.091 66.3339C306.134 66.3339 307.716 66.7838 309.606 67.3336ZM360.728 71.944C372.81 73.2172 384.093 75.0927 398.676 78.252C403.459 79.288 406.99 80.1901 409.123 80.9203C424.725 86.2605 442.661 94.9385 457.056 104.111C460.254 106.149 468.353 111.456 469.38 112.187C469.808 112.492 462.552 127.634 460.559 130.594C459.496 132.175 458.507 133.403 454.248 138.437C452.06 141.024 450.53 143.257 445.706 150.904C438.063 163.02 434.266 168.426 428.827 174.938C422.758 182.204 416.895 188.032 410.437 193.22C404.602 197.906 402.798 199.07 402.798 198.147C402.798 198.017 402.328 197.203 401.753 196.339L400.709 194.769L401.472 194.175C405.447 191.087 412.731 184.03 417.154 178.981C423.818 171.376 429.163 164.371 438.405 151.128C443.835 143.349 445.684 140.901 447.442 139.164C449.13 137.495 449.116 137.393 446.999 135.887C439.569 130.606 423.289 123.574 407.118 118.661C399.345 116.3 395.451 115.5 389.597 115.061C385.7 114.769 384.985 114.852 385.09 115.582C385.193 116.289 387.483 118.039 389.738 119.133C390.804 119.65 391.929 120.202 392.238 120.358C392.547 120.514 392.983 120.981 393.207 121.397C393.898 122.679 393.612 124.634 391.909 130.239C388.114 142.727 379.446 169.447 378.646 171.12L378.324 171.794L378.448 170.895C378.517 170.401 378.619 169.794 378.676 169.547C378.942 168.392 378.255 170.053 376.957 173.703C376.188 175.865 375.531 177.665 375.497 177.703C375.464 177.742 374.38 177.466 373.089 177.09C368.304 175.696 362.556 174.675 358.001 174.409L355.532 174.264L355.135 172.467C351.931 157.995 351 139.578 352.591 122.152C352.981 117.885 353.019 113.179 352.673 112.185C352.349 111.257 351.677 110.869 351.374 111.436C351.071 112.001 350.563 115.594 349.906 121.815C347.977 140.065 348.451 154.604 351.537 171.883L351.942 174.152L348.556 174.155C346.694 174.156 344.801 174.218 344.351 174.293L343.532 174.428L343.149 173.111C341.606 167.807 340.577 162.685 339.795 156.407C337.857 140.857 337.641 125.45 339.112 107.777C339.583 102.121 339.519 102.381 340.551 101.968C343.364 100.843 353.627 100.88 365.378 102.058C384.31 103.955 402.433 108.92 428.612 119.38C441.513 124.535 450.773 128.813 454.589 131.382C455.799 132.196 456.904 132.907 457.046 132.962C457.358 133.081 457.467 132.857 460.656 125.522C462.053 122.31 463.751 118.5 464.43 117.057L465.665 114.432L462.147 111.97C452.913 105.51 447.028 102.099 438.639 98.3413C434.459 96.4695 428.907 94.2132 426.002 93.2058L423.705 92.4095L421.918 97.9592C420.936 101.011 420.007 103.94 419.853 104.467C419.648 105.173 419.481 105.396 419.218 105.314C388.066 95.627 377.94 93.7058 347.529 91.7116C343.513 91.4483 339.924 91.1588 339.553 91.068C338.91 90.9106 338.876 90.8434 338.81 89.5689C338.694 87.3317 340.813 75.3219 341.656 73.4395C342.253 72.1066 342.787 71.7311 344.413 71.501C346.651 71.1846 355.906 71.4359 360.728 71.944ZM323.15 89.9413C324.316 90.3279 325.46 90.8609 325.722 91.1392C326.943 92.4394 327.607 99.2065 327.629 110.584C327.645 118.968 327.56 120.468 327.065 120.468C326.702 120.468 325.431 117.52 324.401 114.291C323.087 110.168 321.833 105.278 320.919 100.701C319.618 94.1932 319.242 90.3441 319.816 89.4155C320.019 89.0862 321.071 89.2522 323.15 89.9413ZM485.252 123.916C489.571 125.026 497.959 127.57 500.012 128.394C500.925 128.76 501.336 129.052 501.382 129.368C501.573 130.666 489.279 145.179 481.513 152.825C470.873 163.3 465.881 166.96 451.834 174.582C448.999 176.12 448.798 176.193 447.565 176.129L446.272 176.061L450.877 173.285C462.124 166.504 471.342 159.745 476.955 154.165C480.202 150.935 485.097 145.049 489.847 138.662C492.67 134.866 493.149 134.022 492.658 133.709C492.214 133.427 488.261 131.903 481.882 129.555C478.978 128.486 476.368 127.463 476.082 127.282C475.648 127.007 475.587 126.833 475.716 126.237C476.031 124.777 477.087 123.256 478.062 122.858C478.8 122.556 481.513 122.956 485.252 123.916ZM473.988 138.619C475.022 139.197 476.225 139.979 476.663 140.358C477.326 140.93 477.434 141.145 477.309 141.641C476.764 143.816 466.92 152.609 457.419 159.411C453.687 162.083 450.024 164.389 449.826 164.192C449.431 163.797 452.247 159.391 456.6 153.594C460.017 149.042 461.315 147.528 466.572 141.968C471.623 136.627 470.959 136.926 473.988 138.619ZM20.314 195.435C19.0909 201.581 18.05 206.724 18.0008 206.863C17.9354 207.047 22.0659 207.14 33.4181 207.209C41.9468 207.261 48.9758 207.355 49.038 207.417C49.1005 207.479 45.6174 225.265 41.2982 246.94C36.9789 268.616 33.4439 286.477 33.4426 286.631C33.4405 286.853 36.4594 286.912 47.7947 286.912H62.1491L62.272 286.407C62.3396 286.129 65.8899 268.313 70.1618 246.817C74.4334 225.321 77.9751 207.607 78.032 207.452C78.1133 207.231 81.4413 207.171 93.6405 207.171H109.145L109.267 206.666C109.684 204.931 113.647 185.053 113.647 184.697C113.647 184.266 113.06 184.26 68.0925 184.26H22.5378L20.314 195.435ZM141.85 191.28C136.714 199.333 92.4021 269.072 85.6166 279.78L81.0974 286.912H96.3109H111.524L117.334 277.029L123.144 267.145H144.865H166.587L168.44 276.186C169.459 281.159 170.392 285.607 170.512 286.07L170.731 286.912H184.989C192.831 286.912 199.247 286.859 199.247 286.793C199.247 286.656 175.017 185.245 174.843 184.653C174.734 184.284 173.857 184.26 160.527 184.26H146.326L141.85 191.28ZM361.683 184.803C373.149 186.648 381.577 190.328 388.443 196.488C390.77 198.576 393.616 201.811 393.538 202.28C393.503 202.493 389.054 206.142 383.652 210.388L373.829 218.108L371.295 215.602C368.439 212.778 366.864 211.632 363.867 210.198C359.419 208.069 354.866 207.281 348.091 207.467C343.45 207.594 340.993 207.991 337.372 209.199C326.714 212.755 319.074 221.716 316.663 233.487C315.501 239.161 315.663 245.208 317.092 249.524C319.329 256.276 325.204 261.289 332.867 262.982C338.406 264.206 345.469 264.033 351.098 262.535C353.846 261.803 354.313 261.56 354.537 260.744C354.639 260.373 355.889 254.308 357.315 247.266C358.742 240.225 359.965 234.235 360.034 233.958L360.159 233.452L372.211 233.456C378.839 233.458 384.395 233.543 384.556 233.645C384.877 233.849 384.327 236.757 379.19 261.979C376.758 273.921 376.464 275.164 375.963 275.604C374.866 276.568 371.157 278.715 367.637 280.424C360.696 283.793 353.27 285.843 344.878 286.707C340.839 287.123 329.935 286.856 326.432 286.256C315.831 284.439 307.601 280.732 300.883 274.747C293.849 268.482 289.696 260.769 287.96 250.748C287.5 248.095 287.566 237.577 288.061 234.463C289.58 224.917 292.536 217.037 297.209 210.084C299.309 206.959 301.149 204.757 304.147 201.781C308.974 196.99 313.085 194.068 319.333 190.989C326.24 187.585 332.922 185.638 341.238 184.607C344.962 184.146 358.394 184.274 361.683 184.803ZM466.359 186.899C467.242 190.249 489.97 284.449 489.97 284.756C489.97 285.123 489.149 285.142 476.171 285.074C468.582 285.035 462.316 284.946 462.246 284.876C462.176 284.806 461.256 280.573 460.201 275.47C459.146 270.366 458.228 266.102 458.162 265.994C458.094 265.884 448.764 265.798 436.986 265.798H415.932L410.897 274.277C408.127 278.941 405.528 283.287 405.119 283.936L404.376 285.115H392.726C386.319 285.115 379.704 285.049 378.028 284.969L374.98 284.823L375.951 283.34C376.486 282.525 390.694 260.429 407.525 234.238C424.357 208.047 438.229 186.492 438.352 186.338C438.526 186.119 441.601 186.057 452.356 186.057H466.138L466.359 186.899ZM535.165 186.338C535.355 186.492 537.762 192.178 540.513 198.973C550.875 224.565 558.318 242.78 558.487 242.959C558.71 243.194 565.139 235.118 596.318 195.435L603.686 186.057H615.577C627.006 186.057 627.468 186.073 627.468 186.474C627.468 186.862 622.971 209.767 612.511 262.647C610.104 274.813 608.049 284.853 607.943 284.959C607.704 285.198 582.637 285.069 582.395 284.827C582.299 284.73 583.051 280.383 584.068 275.168C585.085 269.952 587.329 258.466 589.055 249.642C590.78 240.819 592.152 233.559 592.103 233.51C592.004 233.412 587.212 239.496 570.429 261.024L559.353 275.232H553.118H546.882L545.522 272.031C544.775 270.27 540.906 261.148 536.925 251.759C532.944 242.37 529.512 234.345 529.298 233.927L528.909 233.167L528.682 234.264C528.556 234.868 526.204 246.48 523.454 260.07C520.703 273.659 518.429 284.805 518.4 284.837C518.287 284.963 492.921 284.995 492.795 284.869C492.547 284.621 512.339 186.481 512.681 186.265C512.856 186.154 517.89 186.062 523.908 186.06C532.306 186.058 534.898 186.122 535.165 186.338ZM719.807 186.266C719.807 186.678 715.495 207.511 715.387 207.621C715.326 207.682 704.04 207.784 690.306 207.845L665.336 207.958L663.735 216.044L662.134 224.13L668.672 224.267C672.268 224.342 682.161 224.418 690.656 224.436L706.103 224.467L706.089 224.973C706.082 225.251 705.196 229.926 704.119 235.361L702.162 245.245L680.032 245.302L657.903 245.359L656.157 254.26C655.197 259.155 654.474 263.223 654.551 263.3C654.627 263.376 666.312 263.47 680.516 263.508L706.343 263.577L706.206 264.294C706.131 264.689 705.136 269.459 703.995 274.895L701.92 284.778L698.563 284.918C696.717 284.994 678.791 285.07 658.729 285.086L622.252 285.115L622.371 284.61C622.437 284.332 626.915 262.044 632.322 235.081L642.153 186.057H680.98C704.708 186.057 719.807 186.138 719.807 186.266ZM415.436 203.409C414.809 204.458 395.391 234.599 394.996 235.137C394.694 235.548 394.678 235.496 394.812 234.531C395.263 231.276 393.314 227.24 390.374 225.34C388.753 224.293 387.138 223.782 384.849 223.594L383.18 223.457L387.032 220.44C390.4 217.803 391.598 217.031 396.56 214.305C403.146 210.687 411.063 205.985 413.807 204.063C414.857 203.327 415.752 202.715 415.795 202.702C415.838 202.689 415.677 203.007 415.436 203.409ZM265.987 207.498C271.13 208.273 274.374 210.284 276.084 213.758C277.247 216.121 277.518 217.639 277.356 220.873C277.109 225.794 275.838 228.965 272.94 231.884C270.973 233.866 268.414 235.311 265.173 236.27C263.39 236.799 262.574 236.888 257.886 237.074C254.982 237.188 249.867 237.254 246.52 237.22L240.435 237.158L243.311 222.67C244.893 214.702 246.243 207.955 246.311 207.677L246.436 207.171L255.138 207.173C261.564 207.174 264.401 207.259 265.987 207.498ZM157.469 222.446C160.979 239.579 162.045 245.114 161.867 245.291C161.698 245.46 136.325 245.418 136.155 245.248C136.067 245.16 150.043 221.359 153.278 216.089C154.861 213.511 155.356 212.856 155.485 213.169C155.576 213.391 156.469 217.566 157.469 222.446ZM446.845 213.972C445.772 215.679 428.41 244.911 428.41 245.01C428.41 245.077 434.122 245.132 441.104 245.132C448.945 245.132 453.798 245.051 453.798 244.92C453.798 244.703 451.033 231.098 448.729 219.975C448.025 216.577 447.384 213.725 447.304 213.635C447.224 213.545 447.018 213.697 446.845 213.972ZM301.889 287.897C310.642 293.148 320.679 296.166 331.474 296.793C336.462 297.082 340.136 297.078 344.271 296.78L347.641 296.537L352.584 298.32C367.177 303.586 373.768 306.599 375.082 308.604C375.384 309.065 375.394 309.209 375.14 309.514C374.902 309.802 374.578 309.85 373.583 309.746C371.997 309.58 361.26 306.862 347.754 303.208C326.52 297.463 321.725 296.388 306.639 293.996C299.665 292.889 296.695 292.303 296.333 291.962C295.593 291.263 297.19 287.595 298.547 286.877C298.978 286.649 299.368 286.463 299.414 286.463C299.46 286.463 300.573 287.108 301.889 287.897ZM370.417 293.726C371.081 294.075 372.345 294.507 373.225 294.686C375.218 295.093 375.708 295.571 375.551 296.961C375.429 298.046 375.07 298.592 374.479 298.592C373.279 298.592 364.727 294.965 363.481 293.927C362.957 293.491 362.947 293.449 363.34 293.296C363.571 293.206 364.532 293.25 365.474 293.393C367.804 293.748 368.633 293.725 368.795 293.304C368.868 293.114 368.991 292.988 369.069 293.025C369.146 293.062 369.753 293.377 370.417 293.726ZM295.24 300.176C302.804 301.027 307.002 301.717 321.243 304.451C328.373 305.82 330 306.212 333.712 307.454C336.06 308.24 338.89 309.271 340.003 309.746C342.337 310.743 342.81 311.349 342.81 313.343C342.811 315.238 341.808 320.594 340.354 326.463C339.605 329.487 338.992 332.186 338.992 332.46C338.992 332.735 338.891 332.959 338.767 332.959C338.644 332.959 335.383 332.154 331.522 331.169C320.047 328.244 314.547 327.053 306.574 325.768C298.015 324.389 293.963 323.954 288.388 323.818L283.056 323.687L283.196 323.101C283.692 321.029 289.909 300.316 290.165 299.884C290.308 299.642 290.684 299.664 295.24 300.176ZM296.56 305.075C296.038 305.597 293.854 312.174 292.688 316.737C291.822 320.125 291.544 322.594 292.064 322.272C292.935 321.734 297.042 310.816 297.863 306.858C298.26 304.947 297.596 304.039 296.56 305.075ZM371.401 319.469C373.944 320.327 376.539 321.288 377.167 321.607C378.269 322.165 378.309 322.219 378.309 323.136C378.308 324.836 377.054 329.479 372.664 344.031C370.783 350.271 369.94 352.726 369.68 352.726C369.621 352.726 367.671 351.975 365.347 351.056C358.719 348.437 353.513 346.925 336.348 342.632C304.395 334.641 290.12 332.02 280.795 332.432C277.591 332.574 277.007 332.391 277.397 331.366C277.699 330.574 279.054 329.439 280.066 329.133C280.532 328.992 282.255 328.822 283.894 328.755C288.536 328.565 295.35 329.251 304.617 330.842C312.74 332.236 315.492 332.967 331.353 337.942C349.475 343.627 352.634 344.609 357.536 346.079C363.137 347.759 365.71 348.332 365.846 347.93C366.165 346.982 370.755 332.419 371.308 330.601C373.067 324.817 373.333 322.647 372.392 321.763C372.103 321.492 371.038 320.926 370.024 320.505C367.959 319.647 366.398 318.784 365.963 318.26C365.409 317.593 366.667 317.872 371.401 319.469ZM292.709 340.718C296.585 341.393 300.603 342.386 306.976 344.243C309.324 344.927 313.469 346.001 316.187 346.631C324.857 348.638 325.991 348.941 330.259 350.392C343.914 355.036 355.114 360.441 358.434 363.99C359.011 364.606 359.426 365.165 359.358 365.234C359.172 365.419 352.151 364.891 348.307 364.402C339.336 363.26 328.36 360.381 312.48 355.005C303.596 351.997 299.687 350.366 287.366 344.524C282.544 342.238 280.804 341.312 280.851 341.057C280.887 340.865 281.269 340.525 281.701 340.299C282.843 339.704 288.019 339.901 292.709 340.718ZM324.163 349.581C324.789 350.07 325.19 350.143 325.399 349.806C325.547 349.567 324.616 349.129 323.98 349.137C323.686 349.141 323.727 349.24 324.163 349.581ZM332.251 352.007C332.251 352.325 332.778 352.726 333.195 352.726C333.663 352.726 333.715 352.482 333.33 352.097C333.027 351.795 332.251 351.73 332.251 352.007Z" fill="white"/>
</svg>
