<svg id="Icon" viewBox="0 0 24 24" xmlns="http://www.w3.org/2000/svg"><path d="m21.75 5.32v11.36c0 .77-.38 1.49-1.02 1.92-.39.27-.84.4-1.3.4-.29 0-.58-.05-.86-.16-1.87-.75-3.8-1.41-5.73-1.96l-2-.57c.26-.37.41-.82.41-1.31v-8c0-.49-.15-.94-.41-1.31l2-.57c1.93-.55 3.86-1.21 5.73-1.96.72-.28 1.52-.2 2.16.24.64.43 1.02 1.15 1.02 1.92zm-12.75.93h-4c-1.517 0-2.75 1.233-2.75 2.75v4c0 1.517 1.233 2.75 2.75 2.75h4c.414 0 .75-.336.75-.75v-8c0-.414-.336-.75-.75-.75zm-4 11c-.25 0-.49-.02-.72-.07l.01.89c.01.73.3 1.42.82 1.93.51.5 1.19.77 1.91.77h.03c1.49-.02 2.7-1.24 2.7-2.73v-.49l-1.06-.3z"/></svg>