<svg clip-rule="evenodd" fill-rule="evenodd" stroke-linejoin="round" stroke-miterlimit="2" viewBox="0 0 32 32" xmlns="http://www.w3.org/2000/svg"><g transform="translate(-336 -144)"><path d="m349.011 147.588c-.012-.313-.169-.603-.426-.782-.256-.18-.582-.229-.881-.133-5.628 1.815-9.704 7.099-9.704 13.327 0 7.727 6.273 14 14 14 6.228 0 11.512-4.076 13.327-9.704.096-.299.047-.625-.133-.881-.179-.257-.469-.414-.782-.426-8.364-.302-15.098-7.037-15.401-15.401zm-1.897 1.45c.939 8.307 7.541 14.909 15.848 15.848-1.872 4.19-6.078 7.114-10.962 7.114-6.623 0-12-5.377-12-12 0-4.884 2.924-9.09 7.115-10.962z" fill="#2b2d42"/></g></svg>