<svg height="383pt" viewBox="0 0 383 383.79494" width="383pt" xmlns="http://www.w3.org/2000/svg"><path d="m192.195312 117.160156c-41.21875 0-74.632812 33.414063-74.632812 74.632813s33.414062 74.632812 74.632812 74.632812c41.21875.003907 74.632813-33.410156 74.632813-74.628906-.050781-41.199219-33.433594-74.585937-74.632813-74.636719zm0 127.945313c-29.441406 0-53.3125-23.871094-53.3125-53.3125.003907-29.441407 23.871094-53.308594 53.3125-53.308594 29.441407 0 53.308594 23.867187 53.308594 53.3125-.035156 29.425781-23.882812 53.273437-53.308594 53.308594zm0 0"/><path d="m365.242188 213.097656c-6.59375-5.101562-10.453126-12.96875-10.453126-21.304687 0-8.335938 3.859376-16.203125 10.453126-21.300781 17.230468-13.308594 23.40625-36.511719 15.078124-56.621094-8.332031-20.113282-29.105468-32.152344-50.695312-29.382813-8.269531 1.0625-16.566406-1.769531-22.460938-7.664062-5.894531-5.894531-8.726562-14.1875-7.664062-22.457031 2.769531-21.59375-9.265625-42.367188-29.378906-50.695313-20.113282-8.332031-43.316406-2.15625-56.625 15.074219-5.273438 6.3125-13.074219 9.964844-21.300782 9.964844-8.226562 0-16.03125-3.652344-21.304687-9.964844-13.308594-17.230469-36.507813-23.40625-56.621094-15.074219-20.113281 8.328125-32.152343 29.101563-29.382812 50.691406 1.0625 8.269531-1.765625 16.566407-7.664063 22.460938-5.894531 5.894531-14.1875 8.726562-22.457031 7.664062-21.59375-2.773437-42.367187 9.265625-50.699219 29.378907-8.328125 20.113281-2.148437 43.316406 15.078125 56.625 6.59375 5.097656 10.453125 12.964843 10.453125 21.300781 0 8.335937-3.859375 16.203125-10.453125 21.304687-17.230469 13.304688-23.40625 36.507813-15.078125 56.621094 8.332032 20.113281 29.105469 32.152344 50.699219 29.382812 8.269531-1.0625 16.5625 1.769532 22.457031 7.664063 5.898438 5.894531 8.726563 14.1875 7.664063 22.457031-3.164063 21.671875 9.007812 42.667969 29.382812 50.695313 6.03125 2.53125 12.503907 3.847656 19.042969 3.878906 14.808594-.074219 28.71875-7.089844 37.578125-18.953125 5.273437-6.3125 13.078125-9.964844 21.304687-9.964844 8.226563 0 16.027344 3.652344 21.300782 9.964844 13.308594 17.230469 36.511718 23.40625 56.625 15.074219 20.113281-8.328125 32.152344-29.101563 29.378906-50.695313-1.058594-8.269531 1.769531-16.5625 7.664062-22.457031 5.898438-5.894531 14.191407-8.726563 22.460938-7.664063 21.59375 2.769532 42.363281-9.269531 50.695312-29.382812 8.328126-20.113281 2.152344-43.3125-15.078124-56.621094zm-4.632813 48.457032c-4.433594 11.40625-16.179687 18.214843-28.277344 16.386718-14.820312-1.894531-29.679687 3.183594-40.242187 13.746094-10.566406 10.5625-15.640625 25.421875-13.746094 40.242188 1.542969 12.046874-5.171875 23.632812-16.390625 28.28125-11.21875 4.648437-24.160156 1.203124-31.589844-8.402344-9.441406-11.324219-23.425781-17.867188-38.167969-17.867188-14.746093 0-28.726562 6.542969-38.171874 17.867188-7.425782 9.605468-20.367188 13.050781-31.589844 8.402344-11.21875-4.648438-17.933594-16.234376-16.386719-28.28125 1.753906-13.734376-2.476563-27.558594-11.609375-37.960938-9.136719-10.40625-22.296875-16.386719-36.144531-16.421875-2.082031.003906-4.167969.136719-6.234375.394531-12.046875 1.546875-23.632813-5.171875-28.28125-16.390625-4.648438-11.21875-1.203125-24.160156 8.402344-31.585937 11.820312-9.136719 18.742187-23.230469 18.742187-38.171875 0-14.9375-6.921875-29.035157-18.742187-38.167969-9.605469-7.429688-13.050782-20.371094-8.402344-31.589844 4.648437-11.21875 16.234375-17.933594 28.28125-16.390625 14.816406 1.894531 29.679687-3.179687 40.242187-13.742187 10.5625-10.566406 15.640625-25.425782 13.746094-40.246094-1.546875-12.042969 5.171875-23.628906 16.390625-28.277344 11.21875-4.648437 24.160156-1.207031 31.585938 8.402344 9.445312 11.320312 23.425781 17.867188 38.171874 17.867188 14.742188 0 28.726563-6.546876 38.167969-17.867188 7.429688-9.609375 20.371094-13.050781 31.589844-8.402344 11.21875 4.648438 17.933594 16.234375 16.390625 28.277344-1.894531 14.820312 3.179688 29.679688 13.742188 40.246094 10.566406 10.5625 25.425781 15.636718 40.246093 13.742187 12.042969-1.542969 23.628907 5.171875 28.277344 16.390625s1.207031 24.160156-8.402344 31.589844c-11.820312 9.132812-18.742187 23.230469-18.742187 38.167969 0 14.941406 6.921875 29.035156 18.742187 38.171875 9.886719 7.238281 13.386719 20.394531 8.402344 31.589844zm0 0"/></svg>