<svg id="Layer_1" enable-background="new 0 0 100 100" viewBox="0 0 100 100" xmlns="http://www.w3.org/2000/svg" xmlns:xlink="http://www.w3.org/1999/xlink"><linearGradient id="SVGID_1_" gradientUnits="userSpaceOnUse" x1="-.051" x2="91.965" y1="-4.851" y2="95.99"><stop offset="0" stop-color="#97e0ff"/><stop offset="1" stop-color="#1075ff"/></linearGradient><path d="m50 2.5000012c-26.2000008 0-47.5 21.2999973-47.5 47.5s21.2999992 47.4999988 47.5 47.4999988 47.5-21.3000031 47.5-47.5-21.3000031-47.4999988-47.5-47.4999988zm0 28.1999996c8.2000008 0 14.9000015 6.7000008 14.9000015 14.8999977s-6.7000007 14.9000015-14.9000015 14.9000015-14.9000015-6.7000008-14.9000015-14.9000015 6.7000007-14.8999977 14.9000015-14.8999977zm-26 48.1000023v-2.1999969c0-6.3000031 5.1000004-11.5 11.5-11.5h29c6.3000031 0 11.5 5.0999985 11.5 11.5v2.1999969c-6.9000015 6.1999969-16 10-26 10s-19.1000004-3.8000031-26-10z" fill="url(#SVGID_1_)"/></svg>