<svg width="339" height="413" viewBox="0 0 339 413" fill="none" xmlns="http://www.w3.org/2000/svg">
<g clip-path="url(#clip0_935_5)">
<rect x="150.551" y="102.172" width="35.6323" height="71.2646" transform="rotate(17.7569 150.551 102.172)" fill="white"/>
<mask id="path-2-outside-1_935_5" maskUnits="userSpaceOnUse" x="-23.3444" y="15.6546" width="348.791" height="400.582" fill="black">
<rect fill="white" x="-23.3444" y="15.6546" width="348.791" height="400.582"/>
<path fill-rule="evenodd" clip-rule="evenodd" d="M185.41 63.7073C179.429 62.4809 172.849 61.5146 163.766 60.5279C149.734 59.0039 125.505 57.3347 122.333 57.6738L120.462 57.8737L119.873 59.7124L119.284 61.5514L109.35 58.1033C98.2122 54.2374 88.4728 50.5604 85.8157 49.2181C83.3091 47.9518 82.7235 48.2123 82.2143 50.8189C80.6872 58.6379 83.1929 89.9431 86.5272 104.702C89.4616 117.69 96.7992 133.855 111.038 158.703C114.246 164.302 117.291 170.719 120.489 178.62C123.478 186.007 130.962 200.541 133.25 203.404C134.248 204.652 135.112 205.748 135.171 205.839C135.23 205.931 134.292 207.067 133.087 208.364C130.723 210.907 128.939 213.921 126.981 218.677C125.068 223.325 125.01 224.45 126.455 228.915L127.712 232.799L125.446 236.314C122.672 240.619 120.917 242.74 116.095 247.615C109.033 254.756 101.055 260.468 94.2139 263.283C89.3049 265.303 87.2136 267.233 85.1958 271.607C84.462 273.198 83.5756 275.017 83.226 275.649L82.5908 276.798L79.6408 276.33C78.0183 276.073 75.9398 275.904 75.0223 275.954C73.5156 276.037 73.2837 276.183 72.6323 277.461C72.2353 278.239 68.9476 287.691 65.3259 298.467C61.2631 310.554 58.518 318.277 58.1583 318.631C57.0017 319.768 52.7914 328.981 51.2976 333.643C50.7642 335.307 50.7055 336.083 51.0447 336.992C52.5594 341.057 65.4934 349.411 81.2855 356.524C87.6525 359.392 111.021 367.239 118.01 368.855C129.617 371.54 140.612 372.94 149.585 372.877C154.942 372.838 157.427 372.293 161.796 370.196C163.573 369.343 163.81 369.093 164.301 367.558C164.994 365.395 166.04 356.607 165.971 353.525C165.91 350.784 165.794 351.177 172.744 330.696C175.506 322.557 178.044 314.583 178.385 312.975L179.005 310.051L176.839 308.885C175.647 308.243 173.937 307.475 173.038 307.177C172.139 306.879 171.308 306.385 171.193 306.08C171.077 305.774 171.543 303.492 172.227 301.008C173.066 297.964 173.402 296.099 173.26 295.285C173.014 293.88 171.839 291.695 169.416 288.137C166.754 284.228 163.938 278.239 162.789 274.045C161.688 270.026 160.04 259.994 159.766 255.646C159.505 251.478 159.754 246.319 160.3 244.614C160.678 243.433 161.205 242.726 162.393 241.809C165.273 239.582 165.829 238.691 167.797 233.145C168.803 230.311 169.697 227.422 169.784 226.726C169.871 226.03 169.616 224.062 169.217 222.353L168.491 219.246L179.484 213.304C191.491 206.814 198.981 202.324 203.587 198.856C209.615 194.316 210.474 193.821 212.216 193.881C213.112 193.911 214.65 193.652 215.635 193.304C217.834 192.527 246.37 177.344 252.289 173.801C265.568 165.853 274.253 158.361 286.002 144.716C293.447 136.071 304.219 121.48 303.783 120.63C303.281 119.651 278.199 112.163 270.284 110.628C268.497 110.282 266.97 109.873 266.891 109.719C266.812 109.566 267.105 108.08 267.543 106.418L268.338 103.395L265.121 101.692C263.352 100.755 256.033 96.3709 248.859 91.9484C230.164 80.426 222.763 76.44 211.56 71.8609C205.442 69.36 190.966 64.8465 185.41 63.7073ZM210.602 83.2661C221.009 87.8203 229.749 92.2682 238.824 97.6294C242.394 99.7381 256.217 108.723 256.381 109.041C256.542 109.353 250.127 122.803 248.372 125.835C247.384 127.541 245.229 130.428 243.465 132.409C239.067 137.347 238.445 138.224 231.812 148.845C228.57 154.037 224.324 160.465 222.377 163.13C207.003 184.172 190.125 198.042 169.315 206.737C165.435 208.358 161.958 209.35 161.726 208.9C161.353 208.175 163.896 206.458 172.211 201.823C191.284 191.192 205.074 177.202 225 148.268C230.838 139.791 233.855 135.885 235.145 135.132C235.886 134.699 235.907 134.622 235.451 133.997C234.22 132.308 225.854 127.634 217.407 123.916C206.432 119.086 189.03 113.417 181.765 112.306C178.648 111.829 173.369 111.479 172.289 111.677C171.675 111.789 171.569 111.95 171.774 112.459C172.149 113.39 175.901 115.903 177.847 116.526C180.069 117.237 180.662 118.459 180.221 121.423C179.812 124.176 165.245 169.64 165.136 168.505C165.093 168.062 165.299 166.81 165.594 165.723C166.467 162.501 161.773 175.663 158.831 184.686C155.83 193.888 153.299 200.66 153.068 200.105C152.986 199.908 152.943 199.001 152.972 198.088C153.011 196.893 152.634 195.736 151.623 193.946C146.164 184.283 144.38 179.982 142.395 171.708C138.738 156.453 137.574 137.766 139.187 120.16C140.024 111.03 139.889 108.276 138.584 107.858C137.876 107.631 137.682 108.586 136.757 116.843C135.811 125.285 135.462 130.822 135.406 138.283C135.25 159.158 140.418 185.322 147.905 201.559L149.331 204.652L148.282 204.316C146.322 203.689 140.404 195.577 136.954 188.789C132.624 180.271 128.407 166.865 126.976 157.066C124.565 140.562 124.179 122.043 125.863 103.665L126.275 99.1625L127.424 98.5713C128.905 97.8092 135.626 97.619 144.06 98.1008C167.054 99.4141 186.855 104.5 217.763 117.032C230.916 122.365 238.795 126.096 242.045 128.531C243.096 129.318 244.031 129.924 244.123 129.877C244.215 129.829 245.447 127.086 246.859 123.78C248.272 120.475 250.127 116.276 250.982 114.45L252.536 111.13L248.526 108.304C240.835 102.882 234.875 99.3696 227.599 95.9708C223.235 93.9323 214.906 90.5098 212.177 89.6331L210.494 89.0926L208.412 95.5955L206.329 102.098L194.124 98.4221C173.299 92.1499 161.766 90.1641 136.734 88.5408C130.897 88.1626 125.953 87.799 125.749 87.7334C125.086 87.5213 125.229 85.5532 126.386 78.9537C127.906 70.278 128.346 68.9345 129.845 68.3764C131.211 67.8678 138.04 67.7924 143.491 68.2257C154.469 69.0983 169.135 71.3609 182.244 74.2035C186.465 75.1186 190.576 76.0061 191.381 76.1757C194.293 76.789 203.893 80.3304 210.602 83.2661ZM111.935 69.2002L115.748 70.6647L115.696 72.2105C115.594 75.2499 115.383 76.1602 114.695 76.5141C114.176 76.7814 112.329 76.3448 106.175 74.4997C100.671 72.8492 98.1478 72.2311 97.7506 72.4355C97.307 72.6638 97.1262 73.2382 96.9179 75.0831C96.5361 78.4633 96.7941 94.3897 97.28 97.4493C98.477 104.981 104.96 122.758 110.066 132.512C112.852 137.835 114.364 142.111 113.812 143.11C112.846 144.861 99.5891 117.729 97.0565 108.816C95.8429 104.546 93.4447 89.2697 92.9563 82.7005C92.7846 80.3898 92.54 75.0506 92.4123 70.8358C92.2361 64.9958 92.3096 63.1386 92.7215 63.0311C93.3386 62.8697 106.223 67.0067 111.935 69.2002ZM288.352 126.357C288.205 127.22 279.85 137.462 274.296 143.587C267.742 150.815 258.881 158.852 252.862 163.028C248.764 165.871 238.079 171.93 233.438 174.041C226.755 177.083 228.596 175.467 238.388 169.699C248.736 163.603 259.694 155.454 264.82 150.041C269.841 144.738 280.278 131.303 279.918 130.604C279.825 130.424 276.007 128.923 271.434 127.269C266.86 125.614 262.94 124.131 262.722 123.972C262.208 123.597 262.978 121.227 263.927 120.265C264.329 119.857 265.172 119.452 265.8 119.365C267.099 119.186 276.264 121.567 283.71 124.018C288.253 125.514 288.475 125.626 288.352 126.357ZM112.471 87.7928C113.811 89.1753 114.76 102.798 114.28 113.738C114.115 117.491 113.983 117.891 113.296 116.714C111.489 113.615 108.373 102.614 106.98 94.4174C105.962 88.4248 105.917 86.173 106.811 85.941C107.65 85.723 111.772 87.0715 112.471 87.7928ZM262.802 136.536C264.135 137.417 264.446 137.809 264.264 138.377C263.7 140.136 257.677 145.865 250.131 151.818C243.973 156.676 236.76 161.531 236.487 161.001C236.286 160.61 239.179 156.135 242.617 151.52C247.053 145.566 247.923 144.537 253.234 138.976L258.042 133.941L259.575 134.679C260.419 135.085 261.87 135.921 262.802 136.536ZM152.649 217.043C153.243 217.656 154.118 218.801 154.594 219.587L155.46 221.017L152.906 222.721C151.502 223.659 150.07 224.442 149.724 224.462C149.378 224.481 148.186 224.206 147.077 223.85C144.672 223.08 143.689 223.308 141.688 225.102C140.327 226.321 140.26 226.455 140.638 227.189C140.97 227.833 141.719 228.18 144.854 229.14C151.403 231.144 156.219 231.169 159.101 229.211C159.791 228.743 160.464 228.542 160.644 228.752C161.111 229.298 160.197 231.812 159.155 232.85C157.35 234.648 150.86 234.48 144.263 232.464C140.935 231.448 140.369 231.167 139.094 229.9C136.415 227.239 135.162 223.059 136.133 220.025C137.23 216.602 141.983 214.042 146.729 214.319C148.475 214.421 151.424 215.778 152.649 217.043ZM139.612 239.818L140.631 240.145L139.479 243.779C137.707 249.366 134.987 259.904 135.039 260.973C135.083 261.864 135.12 261.89 135.587 261.344C135.862 261.022 137.466 256.717 139.151 251.779C140.836 246.84 142.405 242.618 142.637 242.396C142.877 242.165 142.676 245.124 142.168 249.276C140.395 263.783 140.165 266.903 140.171 276.44C140.173 280.079 140.082 283.344 139.97 283.695C139.64 284.726 137.807 284.49 128.898 282.274C118.331 279.644 112.092 278.377 103.281 277.07C98.5566 276.369 96.179 275.874 96.0154 275.556C95.6359 274.819 97.0347 273.656 101.597 270.916C107.373 267.447 111.476 264.592 116.508 260.542C123.403 254.994 127.396 250.624 132.164 243.41C135.34 238.604 135.974 238.091 137.634 238.979C138.162 239.261 139.052 239.639 139.612 239.818ZM149.776 250.606C150.011 260.865 151.326 269.186 154.083 277.848C155.768 283.145 158.833 289.224 160.772 291.114C162.372 292.674 162.689 293.614 162.073 294.976C161.686 295.831 161.542 295.858 160.073 295.351C151.131 292.265 146.561 289.314 152.524 290.477C155.445 291.047 155.771 290.931 155.513 289.409C155.4 288.737 154.726 286.554 154.016 284.558C152.381 279.958 150.655 273.968 149.959 270.473C148.662 263.96 147.976 249.812 148.768 245.871C149.167 243.886 149.176 243.873 149.423 245.025C149.562 245.667 149.72 248.179 149.776 250.606ZM144.775 297.364C156.833 301.869 162.506 304.834 162.013 306.374C161.88 306.789 161.441 306.977 160.769 306.905C159.152 306.733 151.12 304.753 141.846 302.242C116.548 295.392 113.958 294.743 104.951 292.996C102.422 292.506 96.5434 291.515 91.8888 290.796C87.2338 290.076 83.2129 289.317 82.9536 289.109C82.2868 288.574 83.3658 285.346 84.5695 284.275C86.1298 282.886 90.6267 282.809 100.211 284.004C103.579 284.424 107.606 285.235 111.406 286.259C118.244 288.101 134.124 293.385 144.775 297.364ZM128.684 307.756C129.06 308.149 129.421 309.095 129.487 309.859C129.642 311.66 128.58 317.658 127.137 323.121C126.51 325.498 125.894 328.052 125.768 328.795L125.541 330.148L121.636 329.136C105.766 325.023 100.117 323.826 88.5866 322.133C81.2221 321.052 75.4949 320.586 72.2601 320.805C70.8602 320.9 69.6798 320.909 69.636 320.824C69.5046 320.569 76.6931 296.617 76.883 296.677C76.9801 296.709 79.4275 296.977 82.321 297.275C88.2234 297.882 94.6861 298.938 106.051 301.153C110.299 301.98 114.275 302.74 114.888 302.841C117.334 303.245 128.003 307.046 128.684 307.756ZM164.961 319.316C165.458 320.284 164.66 323.554 160.625 337.068C156.803 349.869 156.76 349.989 156.053 349.763C155.66 349.637 153.355 348.716 150.932 347.718C146.054 345.708 137.752 343.366 119.386 338.82C90.1685 331.588 75.9829 329.036 67.692 329.518C65.4365 329.649 64.0555 329.562 63.9095 329.278C63.5457 328.572 64.6628 327.113 66.0793 326.444C69.255 324.944 81.7126 325.963 96.7573 328.953C101.319 329.86 106.238 331.305 125.329 337.347C138.012 341.361 149.31 344.792 150.434 344.972L152.479 345.298L156.137 333.775C160.112 321.256 160.393 319.767 158.995 318.652C158.572 318.315 157.561 317.822 156.746 317.556C154.89 316.95 152.81 315.723 152.455 315.025C152.252 314.628 153.757 315.028 158.423 316.613C162.808 318.103 164.75 318.906 164.961 319.316ZM83.0045 302.251C82.2898 303.256 78.9272 314.28 78.5341 316.906C77.9709 320.671 78.4248 320.472 80.344 316.115C82.2144 311.868 84.8377 303.67 84.6514 302.655C84.4527 301.574 83.6289 301.372 83.0045 302.251ZM123.467 349.872C135.059 354.295 142.985 358.484 145.506 361.519L146.197 362.351L145.225 362.396C144.691 362.421 142.113 362.263 139.497 362.043C129.826 361.233 120.792 359.168 105.522 354.281C92.8945 350.239 87.5452 348.128 76.3162 342.758C71.657 340.53 67.7256 338.667 67.58 338.619C66.8776 338.388 67.8106 337.422 69.0168 337.132C72.119 336.385 83.0226 338.1 90.6989 340.544C94.8824 341.875 102.444 343.801 107.862 344.915C111.829 345.731 116.523 347.222 123.467 349.872ZM110.732 346.668C111.238 347.148 111.558 347.244 111.962 347.036C112.378 346.822 112.216 346.667 111.278 346.387C110.123 346.042 110.089 346.059 110.732 346.668ZM118.809 349.163C118.868 349.397 119.224 349.687 119.603 349.808C119.981 349.929 120.342 349.869 120.404 349.674C120.467 349.479 120.109 349.189 119.611 349.029C119.097 348.865 118.749 348.923 118.809 349.163Z"/>
</mask>
<path fill-rule="evenodd" clip-rule="evenodd" d="M185.41 63.7073C179.429 62.4809 172.849 61.5146 163.766 60.5279C149.734 59.0039 125.505 57.3347 122.333 57.6738L120.462 57.8737L119.873 59.7124L119.284 61.5514L109.35 58.1033C98.2122 54.2374 88.4728 50.5604 85.8157 49.2181C83.3091 47.9518 82.7235 48.2123 82.2143 50.8189C80.6872 58.6379 83.1929 89.9431 86.5272 104.702C89.4616 117.69 96.7992 133.855 111.038 158.703C114.246 164.302 117.291 170.719 120.489 178.62C123.478 186.007 130.962 200.541 133.25 203.404C134.248 204.652 135.112 205.748 135.171 205.839C135.23 205.931 134.292 207.067 133.087 208.364C130.723 210.907 128.939 213.921 126.981 218.677C125.068 223.325 125.01 224.45 126.455 228.915L127.712 232.799L125.446 236.314C122.672 240.619 120.917 242.74 116.095 247.615C109.033 254.756 101.055 260.468 94.2139 263.283C89.3049 265.303 87.2136 267.233 85.1958 271.607C84.462 273.198 83.5756 275.017 83.226 275.649L82.5908 276.798L79.6408 276.33C78.0183 276.073 75.9398 275.904 75.0223 275.954C73.5156 276.037 73.2837 276.183 72.6323 277.461C72.2353 278.239 68.9476 287.691 65.3259 298.467C61.2631 310.554 58.518 318.277 58.1583 318.631C57.0017 319.768 52.7914 328.981 51.2976 333.643C50.7642 335.307 50.7055 336.083 51.0447 336.992C52.5594 341.057 65.4934 349.411 81.2855 356.524C87.6525 359.392 111.021 367.239 118.01 368.855C129.617 371.54 140.612 372.94 149.585 372.877C154.942 372.838 157.427 372.293 161.796 370.196C163.573 369.343 163.81 369.093 164.301 367.558C164.994 365.395 166.04 356.607 165.971 353.525C165.91 350.784 165.794 351.177 172.744 330.696C175.506 322.557 178.044 314.583 178.385 312.975L179.005 310.051L176.839 308.885C175.647 308.243 173.937 307.475 173.038 307.177C172.139 306.879 171.308 306.385 171.193 306.08C171.077 305.774 171.543 303.492 172.227 301.008C173.066 297.964 173.402 296.099 173.26 295.285C173.014 293.88 171.839 291.695 169.416 288.137C166.754 284.228 163.938 278.239 162.789 274.045C161.688 270.026 160.04 259.994 159.766 255.646C159.505 251.478 159.754 246.319 160.3 244.614C160.678 243.433 161.205 242.726 162.393 241.809C165.273 239.582 165.829 238.691 167.797 233.145C168.803 230.311 169.697 227.422 169.784 226.726C169.871 226.03 169.616 224.062 169.217 222.353L168.491 219.246L179.484 213.304C191.491 206.814 198.981 202.324 203.587 198.856C209.615 194.316 210.474 193.821 212.216 193.881C213.112 193.911 214.65 193.652 215.635 193.304C217.834 192.527 246.37 177.344 252.289 173.801C265.568 165.853 274.253 158.361 286.002 144.716C293.447 136.071 304.219 121.48 303.783 120.63C303.281 119.651 278.199 112.163 270.284 110.628C268.497 110.282 266.97 109.873 266.891 109.719C266.812 109.566 267.105 108.08 267.543 106.418L268.338 103.395L265.121 101.692C263.352 100.755 256.033 96.3709 248.859 91.9484C230.164 80.426 222.763 76.44 211.56 71.8609C205.442 69.36 190.966 64.8465 185.41 63.7073ZM210.602 83.2661C221.009 87.8203 229.749 92.2682 238.824 97.6294C242.394 99.7381 256.217 108.723 256.381 109.041C256.542 109.353 250.127 122.803 248.372 125.835C247.384 127.541 245.229 130.428 243.465 132.409C239.067 137.347 238.445 138.224 231.812 148.845C228.57 154.037 224.324 160.465 222.377 163.13C207.003 184.172 190.125 198.042 169.315 206.737C165.435 208.358 161.958 209.35 161.726 208.9C161.353 208.175 163.896 206.458 172.211 201.823C191.284 191.192 205.074 177.202 225 148.268C230.838 139.791 233.855 135.885 235.145 135.132C235.886 134.699 235.907 134.622 235.451 133.997C234.22 132.308 225.854 127.634 217.407 123.916C206.432 119.086 189.03 113.417 181.765 112.306C178.648 111.829 173.369 111.479 172.289 111.677C171.675 111.789 171.569 111.95 171.774 112.459C172.149 113.39 175.901 115.903 177.847 116.526C180.069 117.237 180.662 118.459 180.221 121.423C179.812 124.176 165.245 169.64 165.136 168.505C165.093 168.062 165.299 166.81 165.594 165.723C166.467 162.501 161.773 175.663 158.831 184.686C155.83 193.888 153.299 200.66 153.068 200.105C152.986 199.908 152.943 199.001 152.972 198.088C153.011 196.893 152.634 195.736 151.623 193.946C146.164 184.283 144.38 179.982 142.395 171.708C138.738 156.453 137.574 137.766 139.187 120.16C140.024 111.03 139.889 108.276 138.584 107.858C137.876 107.631 137.682 108.586 136.757 116.843C135.811 125.285 135.462 130.822 135.406 138.283C135.25 159.158 140.418 185.322 147.905 201.559L149.331 204.652L148.282 204.316C146.322 203.689 140.404 195.577 136.954 188.789C132.624 180.271 128.407 166.865 126.976 157.066C124.565 140.562 124.179 122.043 125.863 103.665L126.275 99.1625L127.424 98.5713C128.905 97.8092 135.626 97.619 144.06 98.1008C167.054 99.4141 186.855 104.5 217.763 117.032C230.916 122.365 238.795 126.096 242.045 128.531C243.096 129.318 244.031 129.924 244.123 129.877C244.215 129.829 245.447 127.086 246.859 123.78C248.272 120.475 250.127 116.276 250.982 114.45L252.536 111.13L248.526 108.304C240.835 102.882 234.875 99.3696 227.599 95.9708C223.235 93.9323 214.906 90.5098 212.177 89.6331L210.494 89.0926L208.412 95.5955L206.329 102.098L194.124 98.4221C173.299 92.1499 161.766 90.1641 136.734 88.5408C130.897 88.1626 125.953 87.799 125.749 87.7334C125.086 87.5213 125.229 85.5532 126.386 78.9537C127.906 70.278 128.346 68.9345 129.845 68.3764C131.211 67.8678 138.04 67.7924 143.491 68.2257C154.469 69.0983 169.135 71.3609 182.244 74.2035C186.465 75.1186 190.576 76.0061 191.381 76.1757C194.293 76.789 203.893 80.3304 210.602 83.2661ZM111.935 69.2002L115.748 70.6647L115.696 72.2105C115.594 75.2499 115.383 76.1602 114.695 76.5141C114.176 76.7814 112.329 76.3448 106.175 74.4997C100.671 72.8492 98.1478 72.2311 97.7506 72.4355C97.307 72.6638 97.1262 73.2382 96.9179 75.0831C96.5361 78.4633 96.7941 94.3897 97.28 97.4493C98.477 104.981 104.96 122.758 110.066 132.512C112.852 137.835 114.364 142.111 113.812 143.11C112.846 144.861 99.5891 117.729 97.0565 108.816C95.8429 104.546 93.4447 89.2697 92.9563 82.7005C92.7846 80.3898 92.54 75.0506 92.4123 70.8358C92.2361 64.9958 92.3096 63.1386 92.7215 63.0311C93.3386 62.8697 106.223 67.0067 111.935 69.2002ZM288.352 126.357C288.205 127.22 279.85 137.462 274.296 143.587C267.742 150.815 258.881 158.852 252.862 163.028C248.764 165.871 238.079 171.93 233.438 174.041C226.755 177.083 228.596 175.467 238.388 169.699C248.736 163.603 259.694 155.454 264.82 150.041C269.841 144.738 280.278 131.303 279.918 130.604C279.825 130.424 276.007 128.923 271.434 127.269C266.86 125.614 262.94 124.131 262.722 123.972C262.208 123.597 262.978 121.227 263.927 120.265C264.329 119.857 265.172 119.452 265.8 119.365C267.099 119.186 276.264 121.567 283.71 124.018C288.253 125.514 288.475 125.626 288.352 126.357ZM112.471 87.7928C113.811 89.1753 114.76 102.798 114.28 113.738C114.115 117.491 113.983 117.891 113.296 116.714C111.489 113.615 108.373 102.614 106.98 94.4174C105.962 88.4248 105.917 86.173 106.811 85.941C107.65 85.723 111.772 87.0715 112.471 87.7928ZM262.802 136.536C264.135 137.417 264.446 137.809 264.264 138.377C263.7 140.136 257.677 145.865 250.131 151.818C243.973 156.676 236.76 161.531 236.487 161.001C236.286 160.61 239.179 156.135 242.617 151.52C247.053 145.566 247.923 144.537 253.234 138.976L258.042 133.941L259.575 134.679C260.419 135.085 261.87 135.921 262.802 136.536ZM152.649 217.043C153.243 217.656 154.118 218.801 154.594 219.587L155.46 221.017L152.906 222.721C151.502 223.659 150.07 224.442 149.724 224.462C149.378 224.481 148.186 224.206 147.077 223.85C144.672 223.08 143.689 223.308 141.688 225.102C140.327 226.321 140.26 226.455 140.638 227.189C140.97 227.833 141.719 228.18 144.854 229.14C151.403 231.144 156.219 231.169 159.101 229.211C159.791 228.743 160.464 228.542 160.644 228.752C161.111 229.298 160.197 231.812 159.155 232.85C157.35 234.648 150.86 234.48 144.263 232.464C140.935 231.448 140.369 231.167 139.094 229.9C136.415 227.239 135.162 223.059 136.133 220.025C137.23 216.602 141.983 214.042 146.729 214.319C148.475 214.421 151.424 215.778 152.649 217.043ZM139.612 239.818L140.631 240.145L139.479 243.779C137.707 249.366 134.987 259.904 135.039 260.973C135.083 261.864 135.12 261.89 135.587 261.344C135.862 261.022 137.466 256.717 139.151 251.779C140.836 246.84 142.405 242.618 142.637 242.396C142.877 242.165 142.676 245.124 142.168 249.276C140.395 263.783 140.165 266.903 140.171 276.44C140.173 280.079 140.082 283.344 139.97 283.695C139.64 284.726 137.807 284.49 128.898 282.274C118.331 279.644 112.092 278.377 103.281 277.07C98.5566 276.369 96.179 275.874 96.0154 275.556C95.6359 274.819 97.0347 273.656 101.597 270.916C107.373 267.447 111.476 264.592 116.508 260.542C123.403 254.994 127.396 250.624 132.164 243.41C135.34 238.604 135.974 238.091 137.634 238.979C138.162 239.261 139.052 239.639 139.612 239.818ZM149.776 250.606C150.011 260.865 151.326 269.186 154.083 277.848C155.768 283.145 158.833 289.224 160.772 291.114C162.372 292.674 162.689 293.614 162.073 294.976C161.686 295.831 161.542 295.858 160.073 295.351C151.131 292.265 146.561 289.314 152.524 290.477C155.445 291.047 155.771 290.931 155.513 289.409C155.4 288.737 154.726 286.554 154.016 284.558C152.381 279.958 150.655 273.968 149.959 270.473C148.662 263.96 147.976 249.812 148.768 245.871C149.167 243.886 149.176 243.873 149.423 245.025C149.562 245.667 149.72 248.179 149.776 250.606ZM144.775 297.364C156.833 301.869 162.506 304.834 162.013 306.374C161.88 306.789 161.441 306.977 160.769 306.905C159.152 306.733 151.12 304.753 141.846 302.242C116.548 295.392 113.958 294.743 104.951 292.996C102.422 292.506 96.5434 291.515 91.8888 290.796C87.2338 290.076 83.2129 289.317 82.9536 289.109C82.2868 288.574 83.3658 285.346 84.5695 284.275C86.1298 282.886 90.6267 282.809 100.211 284.004C103.579 284.424 107.606 285.235 111.406 286.259C118.244 288.101 134.124 293.385 144.775 297.364ZM128.684 307.756C129.06 308.149 129.421 309.095 129.487 309.859C129.642 311.66 128.58 317.658 127.137 323.121C126.51 325.498 125.894 328.052 125.768 328.795L125.541 330.148L121.636 329.136C105.766 325.023 100.117 323.826 88.5866 322.133C81.2221 321.052 75.4949 320.586 72.2601 320.805C70.8602 320.9 69.6798 320.909 69.636 320.824C69.5046 320.569 76.6931 296.617 76.883 296.677C76.9801 296.709 79.4275 296.977 82.321 297.275C88.2234 297.882 94.6861 298.938 106.051 301.153C110.299 301.98 114.275 302.74 114.888 302.841C117.334 303.245 128.003 307.046 128.684 307.756ZM164.961 319.316C165.458 320.284 164.66 323.554 160.625 337.068C156.803 349.869 156.76 349.989 156.053 349.763C155.66 349.637 153.355 348.716 150.932 347.718C146.054 345.708 137.752 343.366 119.386 338.82C90.1685 331.588 75.9829 329.036 67.692 329.518C65.4365 329.649 64.0555 329.562 63.9095 329.278C63.5457 328.572 64.6628 327.113 66.0793 326.444C69.255 324.944 81.7126 325.963 96.7573 328.953C101.319 329.86 106.238 331.305 125.329 337.347C138.012 341.361 149.31 344.792 150.434 344.972L152.479 345.298L156.137 333.775C160.112 321.256 160.393 319.767 158.995 318.652C158.572 318.315 157.561 317.822 156.746 317.556C154.89 316.95 152.81 315.723 152.455 315.025C152.252 314.628 153.757 315.028 158.423 316.613C162.808 318.103 164.75 318.906 164.961 319.316ZM83.0045 302.251C82.2898 303.256 78.9272 314.28 78.5341 316.906C77.9709 320.671 78.4248 320.472 80.344 316.115C82.2144 311.868 84.8377 303.67 84.6514 302.655C84.4527 301.574 83.6289 301.372 83.0045 302.251ZM123.467 349.872C135.059 354.295 142.985 358.484 145.506 361.519L146.197 362.351L145.225 362.396C144.691 362.421 142.113 362.263 139.497 362.043C129.826 361.233 120.792 359.168 105.522 354.281C92.8945 350.239 87.5452 348.128 76.3162 342.758C71.657 340.53 67.7256 338.667 67.58 338.619C66.8776 338.388 67.8106 337.422 69.0168 337.132C72.119 336.385 83.0226 338.1 90.6989 340.544C94.8824 341.875 102.444 343.801 107.862 344.915C111.829 345.731 116.523 347.222 123.467 349.872ZM110.732 346.668C111.238 347.148 111.558 347.244 111.962 347.036C112.378 346.822 112.216 346.667 111.278 346.387C110.123 346.042 110.089 346.059 110.732 346.668ZM118.809 349.163C118.868 349.397 119.224 349.687 119.603 349.808C119.981 349.929 120.342 349.869 120.404 349.674C120.467 349.479 120.109 349.189 119.611 349.029C119.097 348.865 118.749 348.923 118.809 349.163Z" fill="#151414"/>
<path fill-rule="evenodd" clip-rule="evenodd" d="M185.41 63.7073C179.429 62.4809 172.849 61.5146 163.766 60.5279C149.734 59.0039 125.505 57.3347 122.333 57.6738L120.462 57.8737L119.873 59.7124L119.284 61.5514L109.35 58.1033C98.2122 54.2374 88.4728 50.5604 85.8157 49.2181C83.3091 47.9518 82.7235 48.2123 82.2143 50.8189C80.6872 58.6379 83.1929 89.9431 86.5272 104.702C89.4616 117.69 96.7992 133.855 111.038 158.703C114.246 164.302 117.291 170.719 120.489 178.62C123.478 186.007 130.962 200.541 133.25 203.404C134.248 204.652 135.112 205.748 135.171 205.839C135.23 205.931 134.292 207.067 133.087 208.364C130.723 210.907 128.939 213.921 126.981 218.677C125.068 223.325 125.01 224.45 126.455 228.915L127.712 232.799L125.446 236.314C122.672 240.619 120.917 242.74 116.095 247.615C109.033 254.756 101.055 260.468 94.2139 263.283C89.3049 265.303 87.2136 267.233 85.1958 271.607C84.462 273.198 83.5756 275.017 83.226 275.649L82.5908 276.798L79.6408 276.33C78.0183 276.073 75.9398 275.904 75.0223 275.954C73.5156 276.037 73.2837 276.183 72.6323 277.461C72.2353 278.239 68.9476 287.691 65.3259 298.467C61.2631 310.554 58.518 318.277 58.1583 318.631C57.0017 319.768 52.7914 328.981 51.2976 333.643C50.7642 335.307 50.7055 336.083 51.0447 336.992C52.5594 341.057 65.4934 349.411 81.2855 356.524C87.6525 359.392 111.021 367.239 118.01 368.855C129.617 371.54 140.612 372.94 149.585 372.877C154.942 372.838 157.427 372.293 161.796 370.196C163.573 369.343 163.81 369.093 164.301 367.558C164.994 365.395 166.04 356.607 165.971 353.525C165.91 350.784 165.794 351.177 172.744 330.696C175.506 322.557 178.044 314.583 178.385 312.975L179.005 310.051L176.839 308.885C175.647 308.243 173.937 307.475 173.038 307.177C172.139 306.879 171.308 306.385 171.193 306.08C171.077 305.774 171.543 303.492 172.227 301.008C173.066 297.964 173.402 296.099 173.26 295.285C173.014 293.88 171.839 291.695 169.416 288.137C166.754 284.228 163.938 278.239 162.789 274.045C161.688 270.026 160.04 259.994 159.766 255.646C159.505 251.478 159.754 246.319 160.3 244.614C160.678 243.433 161.205 242.726 162.393 241.809C165.273 239.582 165.829 238.691 167.797 233.145C168.803 230.311 169.697 227.422 169.784 226.726C169.871 226.03 169.616 224.062 169.217 222.353L168.491 219.246L179.484 213.304C191.491 206.814 198.981 202.324 203.587 198.856C209.615 194.316 210.474 193.821 212.216 193.881C213.112 193.911 214.65 193.652 215.635 193.304C217.834 192.527 246.37 177.344 252.289 173.801C265.568 165.853 274.253 158.361 286.002 144.716C293.447 136.071 304.219 121.48 303.783 120.63C303.281 119.651 278.199 112.163 270.284 110.628C268.497 110.282 266.97 109.873 266.891 109.719C266.812 109.566 267.105 108.08 267.543 106.418L268.338 103.395L265.121 101.692C263.352 100.755 256.033 96.3709 248.859 91.9484C230.164 80.426 222.763 76.44 211.56 71.8609C205.442 69.36 190.966 64.8465 185.41 63.7073ZM210.602 83.2661C221.009 87.8203 229.749 92.2682 238.824 97.6294C242.394 99.7381 256.217 108.723 256.381 109.041C256.542 109.353 250.127 122.803 248.372 125.835C247.384 127.541 245.229 130.428 243.465 132.409C239.067 137.347 238.445 138.224 231.812 148.845C228.57 154.037 224.324 160.465 222.377 163.13C207.003 184.172 190.125 198.042 169.315 206.737C165.435 208.358 161.958 209.35 161.726 208.9C161.353 208.175 163.896 206.458 172.211 201.823C191.284 191.192 205.074 177.202 225 148.268C230.838 139.791 233.855 135.885 235.145 135.132C235.886 134.699 235.907 134.622 235.451 133.997C234.22 132.308 225.854 127.634 217.407 123.916C206.432 119.086 189.03 113.417 181.765 112.306C178.648 111.829 173.369 111.479 172.289 111.677C171.675 111.789 171.569 111.95 171.774 112.459C172.149 113.39 175.901 115.903 177.847 116.526C180.069 117.237 180.662 118.459 180.221 121.423C179.812 124.176 165.245 169.64 165.136 168.505C165.093 168.062 165.299 166.81 165.594 165.723C166.467 162.501 161.773 175.663 158.831 184.686C155.83 193.888 153.299 200.66 153.068 200.105C152.986 199.908 152.943 199.001 152.972 198.088C153.011 196.893 152.634 195.736 151.623 193.946C146.164 184.283 144.38 179.982 142.395 171.708C138.738 156.453 137.574 137.766 139.187 120.16C140.024 111.03 139.889 108.276 138.584 107.858C137.876 107.631 137.682 108.586 136.757 116.843C135.811 125.285 135.462 130.822 135.406 138.283C135.25 159.158 140.418 185.322 147.905 201.559L149.331 204.652L148.282 204.316C146.322 203.689 140.404 195.577 136.954 188.789C132.624 180.271 128.407 166.865 126.976 157.066C124.565 140.562 124.179 122.043 125.863 103.665L126.275 99.1625L127.424 98.5713C128.905 97.8092 135.626 97.619 144.06 98.1008C167.054 99.4141 186.855 104.5 217.763 117.032C230.916 122.365 238.795 126.096 242.045 128.531C243.096 129.318 244.031 129.924 244.123 129.877C244.215 129.829 245.447 127.086 246.859 123.78C248.272 120.475 250.127 116.276 250.982 114.45L252.536 111.13L248.526 108.304C240.835 102.882 234.875 99.3696 227.599 95.9708C223.235 93.9323 214.906 90.5098 212.177 89.6331L210.494 89.0926L208.412 95.5955L206.329 102.098L194.124 98.4221C173.299 92.1499 161.766 90.1641 136.734 88.5408C130.897 88.1626 125.953 87.799 125.749 87.7334C125.086 87.5213 125.229 85.5532 126.386 78.9537C127.906 70.278 128.346 68.9345 129.845 68.3764C131.211 67.8678 138.04 67.7924 143.491 68.2257C154.469 69.0983 169.135 71.3609 182.244 74.2035C186.465 75.1186 190.576 76.0061 191.381 76.1757C194.293 76.789 203.893 80.3304 210.602 83.2661ZM111.935 69.2002L115.748 70.6647L115.696 72.2105C115.594 75.2499 115.383 76.1602 114.695 76.5141C114.176 76.7814 112.329 76.3448 106.175 74.4997C100.671 72.8492 98.1478 72.2311 97.7506 72.4355C97.307 72.6638 97.1262 73.2382 96.9179 75.0831C96.5361 78.4633 96.7941 94.3897 97.28 97.4493C98.477 104.981 104.96 122.758 110.066 132.512C112.852 137.835 114.364 142.111 113.812 143.11C112.846 144.861 99.5891 117.729 97.0565 108.816C95.8429 104.546 93.4447 89.2697 92.9563 82.7005C92.7846 80.3898 92.54 75.0506 92.4123 70.8358C92.2361 64.9958 92.3096 63.1386 92.7215 63.0311C93.3386 62.8697 106.223 67.0067 111.935 69.2002ZM288.352 126.357C288.205 127.22 279.85 137.462 274.296 143.587C267.742 150.815 258.881 158.852 252.862 163.028C248.764 165.871 238.079 171.93 233.438 174.041C226.755 177.083 228.596 175.467 238.388 169.699C248.736 163.603 259.694 155.454 264.82 150.041C269.841 144.738 280.278 131.303 279.918 130.604C279.825 130.424 276.007 128.923 271.434 127.269C266.86 125.614 262.94 124.131 262.722 123.972C262.208 123.597 262.978 121.227 263.927 120.265C264.329 119.857 265.172 119.452 265.8 119.365C267.099 119.186 276.264 121.567 283.71 124.018C288.253 125.514 288.475 125.626 288.352 126.357ZM112.471 87.7928C113.811 89.1753 114.76 102.798 114.28 113.738C114.115 117.491 113.983 117.891 113.296 116.714C111.489 113.615 108.373 102.614 106.98 94.4174C105.962 88.4248 105.917 86.173 106.811 85.941C107.65 85.723 111.772 87.0715 112.471 87.7928ZM262.802 136.536C264.135 137.417 264.446 137.809 264.264 138.377C263.7 140.136 257.677 145.865 250.131 151.818C243.973 156.676 236.76 161.531 236.487 161.001C236.286 160.61 239.179 156.135 242.617 151.52C247.053 145.566 247.923 144.537 253.234 138.976L258.042 133.941L259.575 134.679C260.419 135.085 261.87 135.921 262.802 136.536ZM152.649 217.043C153.243 217.656 154.118 218.801 154.594 219.587L155.46 221.017L152.906 222.721C151.502 223.659 150.07 224.442 149.724 224.462C149.378 224.481 148.186 224.206 147.077 223.85C144.672 223.08 143.689 223.308 141.688 225.102C140.327 226.321 140.26 226.455 140.638 227.189C140.97 227.833 141.719 228.18 144.854 229.14C151.403 231.144 156.219 231.169 159.101 229.211C159.791 228.743 160.464 228.542 160.644 228.752C161.111 229.298 160.197 231.812 159.155 232.85C157.35 234.648 150.86 234.48 144.263 232.464C140.935 231.448 140.369 231.167 139.094 229.9C136.415 227.239 135.162 223.059 136.133 220.025C137.23 216.602 141.983 214.042 146.729 214.319C148.475 214.421 151.424 215.778 152.649 217.043ZM139.612 239.818L140.631 240.145L139.479 243.779C137.707 249.366 134.987 259.904 135.039 260.973C135.083 261.864 135.12 261.89 135.587 261.344C135.862 261.022 137.466 256.717 139.151 251.779C140.836 246.84 142.405 242.618 142.637 242.396C142.877 242.165 142.676 245.124 142.168 249.276C140.395 263.783 140.165 266.903 140.171 276.44C140.173 280.079 140.082 283.344 139.97 283.695C139.64 284.726 137.807 284.49 128.898 282.274C118.331 279.644 112.092 278.377 103.281 277.07C98.5566 276.369 96.179 275.874 96.0154 275.556C95.6359 274.819 97.0347 273.656 101.597 270.916C107.373 267.447 111.476 264.592 116.508 260.542C123.403 254.994 127.396 250.624 132.164 243.41C135.34 238.604 135.974 238.091 137.634 238.979C138.162 239.261 139.052 239.639 139.612 239.818ZM149.776 250.606C150.011 260.865 151.326 269.186 154.083 277.848C155.768 283.145 158.833 289.224 160.772 291.114C162.372 292.674 162.689 293.614 162.073 294.976C161.686 295.831 161.542 295.858 160.073 295.351C151.131 292.265 146.561 289.314 152.524 290.477C155.445 291.047 155.771 290.931 155.513 289.409C155.4 288.737 154.726 286.554 154.016 284.558C152.381 279.958 150.655 273.968 149.959 270.473C148.662 263.96 147.976 249.812 148.768 245.871C149.167 243.886 149.176 243.873 149.423 245.025C149.562 245.667 149.72 248.179 149.776 250.606ZM144.775 297.364C156.833 301.869 162.506 304.834 162.013 306.374C161.88 306.789 161.441 306.977 160.769 306.905C159.152 306.733 151.12 304.753 141.846 302.242C116.548 295.392 113.958 294.743 104.951 292.996C102.422 292.506 96.5434 291.515 91.8888 290.796C87.2338 290.076 83.2129 289.317 82.9536 289.109C82.2868 288.574 83.3658 285.346 84.5695 284.275C86.1298 282.886 90.6267 282.809 100.211 284.004C103.579 284.424 107.606 285.235 111.406 286.259C118.244 288.101 134.124 293.385 144.775 297.364ZM128.684 307.756C129.06 308.149 129.421 309.095 129.487 309.859C129.642 311.66 128.58 317.658 127.137 323.121C126.51 325.498 125.894 328.052 125.768 328.795L125.541 330.148L121.636 329.136C105.766 325.023 100.117 323.826 88.5866 322.133C81.2221 321.052 75.4949 320.586 72.2601 320.805C70.8602 320.9 69.6798 320.909 69.636 320.824C69.5046 320.569 76.6931 296.617 76.883 296.677C76.9801 296.709 79.4275 296.977 82.321 297.275C88.2234 297.882 94.6861 298.938 106.051 301.153C110.299 301.98 114.275 302.74 114.888 302.841C117.334 303.245 128.003 307.046 128.684 307.756ZM164.961 319.316C165.458 320.284 164.66 323.554 160.625 337.068C156.803 349.869 156.76 349.989 156.053 349.763C155.66 349.637 153.355 348.716 150.932 347.718C146.054 345.708 137.752 343.366 119.386 338.82C90.1685 331.588 75.9829 329.036 67.692 329.518C65.4365 329.649 64.0555 329.562 63.9095 329.278C63.5457 328.572 64.6628 327.113 66.0793 326.444C69.255 324.944 81.7126 325.963 96.7573 328.953C101.319 329.86 106.238 331.305 125.329 337.347C138.012 341.361 149.31 344.792 150.434 344.972L152.479 345.298L156.137 333.775C160.112 321.256 160.393 319.767 158.995 318.652C158.572 318.315 157.561 317.822 156.746 317.556C154.89 316.95 152.81 315.723 152.455 315.025C152.252 314.628 153.757 315.028 158.423 316.613C162.808 318.103 164.75 318.906 164.961 319.316ZM83.0045 302.251C82.2898 303.256 78.9272 314.28 78.5341 316.906C77.9709 320.671 78.4248 320.472 80.344 316.115C82.2144 311.868 84.8377 303.67 84.6514 302.655C84.4527 301.574 83.6289 301.372 83.0045 302.251ZM123.467 349.872C135.059 354.295 142.985 358.484 145.506 361.519L146.197 362.351L145.225 362.396C144.691 362.421 142.113 362.263 139.497 362.043C129.826 361.233 120.792 359.168 105.522 354.281C92.8945 350.239 87.5452 348.128 76.3162 342.758C71.657 340.53 67.7256 338.667 67.58 338.619C66.8776 338.388 67.8106 337.422 69.0168 337.132C72.119 336.385 83.0226 338.1 90.6989 340.544C94.8824 341.875 102.444 343.801 107.862 344.915C111.829 345.731 116.523 347.222 123.467 349.872ZM110.732 346.668C111.238 347.148 111.558 347.244 111.962 347.036C112.378 346.822 112.216 346.667 111.278 346.387C110.123 346.042 110.089 346.059 110.732 346.668ZM118.809 349.163C118.868 349.397 119.224 349.687 119.603 349.808C119.981 349.929 120.342 349.869 120.404 349.674C120.467 349.479 120.109 349.189 119.611 349.029C119.097 348.865 118.749 348.923 118.809 349.163Z" stroke="white" stroke-width="24.3343" mask="url(#path-2-outside-1_935_5)"/>
</g>
<defs>
<clipPath id="clip0_935_5">
<rect width="339" height="413" fill="white"/>
</clipPath>
</defs>
</svg>
